<?xml version="1.0" standalone="no"?>
<!DOCTYPE svg PUBLIC "-//W3C//DTD SVG 20010904//EN"
 "http://www.w3.org/TR/2001/REC-SVG-20010904/DTD/svg10.dtd">
<svg version="1.0" xmlns="http://www.w3.org/2000/svg"
 width="256.000000pt" height="256.000000pt" viewBox="0 0 256.000000 256.000000"
 preserveAspectRatio="xMidYMid meet">
<metadata>
Created by potrace 1.11, written by Peter Selinger 2001-2013
</metadata>
<g transform="translate(0.000000,256.000000) scale(0.100000,-0.100000)"
fill="#000000" stroke="none">
<path d="M1195 2403 c-46 -12 -104 -64 -129 -115 -22 -48 -25 -66 -26 -183 0
-113 2 -135 20 -167 15 -29 19 -52 17 -98 -2 -33 -5 -61 -8 -63 -2 -2 -26 -16
-54 -32 -60 -33 -174 -112 -196 -135 -33 -33 -43 -67 -45 -150 -2 -96 11 -130
50 -130 38 0 51 26 53 109 1 42 2 79 2 83 2 11 135 105 204 143 92 51 97 59
97 179 0 80 -4 104 -19 130 -17 27 -20 47 -17 141 1 64 7 119 14 133 41 74
183 80 233 10 20 -28 23 -44 23 -148 1 -100 -2 -121 -17 -138 -15 -17 -18 -37
-18 -128 0 -108 1 -109 30 -134 16 -14 57 -41 91 -60 35 -19 89 -55 121 -78
l59 -44 0 -77 c0 -90 16 -124 58 -119 16 2 31 13 38 27 16 31 10 180 -8 214
-17 33 -111 107 -210 164 l-76 45 2 66 c1 42 8 79 19 100 25 47 23 271 -3 329
-23 53 -81 107 -129 121 -38 12 -138 14 -176 5z"/>
<path d="M1249 1383 c-10 -11 -15 -48 -16 -117 -1 -56 -2 -111 -2 -123 -1 -13
-7 -23 -13 -23 -41 0 -98 -89 -98 -152 0 -31 -6 -36 -82 -78 -106 -58 -128
-77 -128 -104 0 -22 28 -56 46 -56 5 0 56 26 113 59 l105 58 30 -18 c41 -25
121 -25 161 0 l31 18 99 -58 c55 -32 107 -58 115 -58 29 0 52 26 48 56 -3 24
-18 37 -105 88 -96 56 -102 62 -103 92 0 61 -46 134 -94 152 -17 7 -19 20 -20
128 -1 129 -9 153 -51 153 -12 0 -29 -7 -36 -17z m75 -366 c39 -28 10 -107
-39 -107 -24 0 -58 31 -61 58 -8 49 57 80 100 49z"/>
<path d="M465 1229 c-64 -8 -104 -28 -142 -73 -46 -52 -57 -96 -57 -237 0
-106 3 -131 19 -160 18 -30 22 -73 16 -146 -1 -7 -31 -30 -69 -52 -102 -59
-190 -128 -212 -164 -16 -26 -20 -50 -20 -124 0 -99 10 -123 54 -123 37 0 47
23 50 114 2 71 6 89 22 101 44 33 152 104 199 129 80 44 80 43 81 166 2 94 -1
113 -17 134 -16 20 -19 41 -19 131 0 154 21 190 119 202 59 7 109 -15 135 -58
26 -45 27 -233 1 -273 -15 -22 -19 -48 -20 -115 -1 -138 -2 -136 79 -183 85
-49 197 -126 212 -147 7 -8 12 -51 13 -95 1 -84 12 -106 52 -106 38 0 49 27
49 123 0 73 -4 98 -19 124 -25 40 -97 97 -200 157 l-81 48 0 64 c0 43 6 75 18
98 15 28 18 55 17 167 -2 116 -5 140 -23 176 -49 95 -138 138 -257 122z"/>
<path d="M2020 1229 c-66 -7 -104 -26 -148 -72 -47 -49 -59 -101 -58 -247 1
-101 5 -130 19 -150 12 -17 17 -44 17 -91 l0 -67 -67 -40 c-105 -62 -191 -129
-213 -165 -16 -26 -20 -50 -20 -124 0 -97 11 -123 50 -123 38 0 50 27 50 110
0 58 4 83 16 94 25 25 133 99 206 141 36 21 70 48 75 59 5 12 9 67 8 122 -1
81 -5 105 -18 119 -19 18 -19 21 -18 153 0 69 5 100 18 122 48 82 198 78 237
-5 23 -49 23 -241 -1 -267 -21 -24 -29 -210 -10 -247 7 -13 37 -37 67 -54 79
-43 183 -112 205 -137 15 -16 19 -38 20 -100 2 -86 13 -110 51 -110 44 0 54
24 54 123 0 73 -4 98 -19 124 -23 37 -96 94 -207 160 l-79 48 1 60 c0 38 7 73
19 95 15 29 19 57 19 160 0 140 -11 184 -57 236 -53 61 -122 84 -217 73z"/>
</g>
</svg>
